<svg xmlns="http://www.w3.org/2000/svg">
    <symbol id="floppy" fill="currentColor" > 
        <path d="M0 0h3v3H0zM0 3h3v3H0zM0 6h3v3H0zM0 9h3v3H0zM0 12h3v3H0zM0 15h3v3H0zM0 18h3v3H0zM0 21h3v3H0zM0 24h3v3H0zM0 27h3v3H0zM0 30h3v3H0zM0 33h3v3H0zM0 36h3v3H0zM33 0v3h-3V0z"/>
        <path d="M30.0031 0v3h-3V0zM26.9998 0v3h-3V0zM23.9998 0v3h-3V0zM20.999 0v3h-3V0z"/>
        <path d="M17.9998 0v3h-3V0zM14.999 0v3h-3V0z"/>
        <path d="M11.9999 0v3h-3V0zM8.996 0v3h-3V0z"/>
        <path d="M6 0v3H3V0zM36.0008 3v3h-3V3zM8.996 6v3h-3V6zM8.996 3v3h-3V3zM8.996 9v3h-3V9zM30.0031 6v3h-3V6zM30.0031 3v3h-3V3zM30.0031 9v3h-3V9zM23.9998 6v3h-3V6zM23.9998 3v3h-3V3zM23.9998 9v3h-3V9zM30.0031 12v3h-3v-3zM26.9998 12v3h-3v-3zM23.9998 12v3h-3v-3zM20.999 12v3h-3v-3z"/>
        <path d="M17.9998 12v3h-3v-3zM14.999 12v3h-3v-3z"/>
        <path d="M11.9999 12v3h-3v-3zM8.996 12v3h-3v-3zM33 21v3h-3v-3z"/>
        <path d="M30.0031 21v3h-3v-3zM26.9998 21v3h-3v-3zM23.9998 21v3h-3v-3zM20.999 21v3h-3v-3z"/>
        <path d="M17.9998 21v3h-3v-3zM14.999 21v3h-3v-3z"/>
        <path d="M11.9999 21v3h-3v-3zM8.996 21v3h-3v-3zM33 24v3h-3v-3zM8.996 24v3h-3v-3zM33 27v3h-3v-3zM8.996 27v3h-3v-3zM33 30v3h-3v-3zM8.996 30v3h-3v-3zM8.996 33v3h-3v-3zM33 33v3h-3v-3zM36.0008 36v3h-3v-3zM33 36v3h-3v-3z"/>
        <path d="M30.0031 36v3h-3v-3zM26.9998 36v3h-3v-3zM23.9998 36v3h-3v-3zM20.999 36v3h-3v-3z"/>
        <path d="M17.9998 36v3h-3v-3zM14.999 36v3h-3v-3z"/>
        <path d="M11.9999 36v3h-3v-3zM8.996 36v3h-3v-3z"/>
        <path d="M6 36v3H3v-3zM39 39h-3v-3h3zM39 36h-3v-3h3zM39 33h-3v-3h3zM39 30h-3v-3h3zM39 27h-3v-3h3zM39 24h-3v-3h3zM39 21h-3v-3h3zM39 18h-3v-3h3zM39 15h-3v-3h3zM39 12h-3V9h3zM39 9h-3V6h3z"/>
    </symbol>
</svg>